<?xml version="1.0" encoding="utf-8"?>
<!-- Generator: Adobe Illustrator 14.0.0, SVG Export Plug-In  -->
<!DOCTYPE svg PUBLIC "-//W3C//DTD SVG 1.1//EN" "http://www.w3.org/Graphics/SVG/1.1/DTD/svg11.dtd" [
	<!ENTITY ns_flows "http://ns.adobe.com/Flows/1.0/">
]>
<svg version="1.1"
	 xmlns="http://www.w3.org/2000/svg" xmlns:xlink="http://www.w3.org/1999/xlink" xmlns:a="http://ns.adobe.com/AdobeSVGViewerExtensions/3.0/"
	 x="0px" y="0px" width="249px" height="114px" viewBox="-6.985 -4.957 249 114" enable-background="new -6.985 -4.957 249 114"
	 xml:space="preserve">
<defs>
</defs>
<path fill="#445760" d="M179.252,78.881c0,0,4.362-6.269,12.671-9.797s15.864-1.329,15.864-1.329s-7.368-1.183-15.498,2.217
	C184.161,73.368,179.252,78.881,179.252,78.881z"/>
<path fill="#445760" d="M180.58,81.199c0,0,3.995-6.042,11.925-9.514c7.93-3.474,15.078-1.743,15.078-1.743
	s-7.114-0.588-14.701,2.625C185.292,75.778,180.58,81.199,180.58,81.199z"/>
<path fill="#445760" d="M181.908,83.519c0,0,3.626-5.815,11.177-9.233c7.553-3.419,14.293-2.156,14.293-2.156
	s-6.855,0.008-13.904,3.034C186.426,78.188,181.908,83.519,181.908,83.519z"/>
<path fill="#445760" d="M183.238,85.838c0,0,3.259-5.589,10.431-8.951c7.172-3.363,13.505-2.569,13.505-2.569
	s-6.601,0.602-13.107,3.44C187.557,80.598,183.238,85.838,183.238,85.838z"/>
<path fill="#445760" d="M184.566,88.156c0,0,2.889-5.362,9.683-8.67c6.795-3.308,12.719-2.981,12.719-2.981
	s-6.343,1.198-12.312,3.849C188.69,83.006,184.566,88.156,184.566,88.156z"/>
<path fill="#445760" d="M238.634,81.652c0.045,0.046-3.286-5.406-10.842-10.086c-7.406-4.602-19.104-8.146-29.882-6.266
	c-5.348,0.898-10.528,3.323-14.66,6.669c-2.114,1.619-3.917,3.51-5.584,5.352c-0.802,0.951-1.979,2.474-2.722,3.391
	c-0.802-0.396-1.858-1.185-3.048-1.832c-7.955-4.423-14.298-2.314-14.298-2.314s6.305-2.51,14.607,1.664
	c1.312,0.709,2.485,1.43,2.485,1.43s1.435-1.973,2.22-2.97c1.639-1.938,3.432-3.934,5.572-5.663
	c4.179-3.564,9.585-6.207,15.178-7.144c11.303-1.952,23.177,2.098,30.523,7.081C235.674,76.043,238.677,81.708,238.634,81.652z"/>
<path fill="#445760" d="M0,105.436c-0.044,0.047,3.184-5.469,10.649-10.289c7.317-4.742,18.947-8.508,29.758-6.831
	c5.364,0.798,10.589,3.123,14.784,6.391c2.145,1.579,3.982,3.436,5.685,5.245c0.818,0.936,2.025,2.436,2.785,3.339
	c0.793-0.411,1.835-1.22,3.012-1.891c7.871-4.571,14.252-2.584,14.252-2.584s-6.351-2.39-14.573,1.94
	c-1.299,0.733-2.458,1.477-2.458,1.477s-1.472-1.945-2.275-2.927c-1.676-1.907-3.506-3.868-5.679-5.558
	c-4.245-3.484-9.7-6.024-15.31-6.854c-11.338-1.738-23.134,2.535-30.384,7.656C2.854,99.771-0.041,105.491,0,105.436z"/>
<path fill="#445760" d="M140.434,80.162c0,0,6.401-2.252,10.686-7.954c4.285-5.702,3.457-12.644,3.457-12.644
	s0.273,6.255-4.221,12.063C145.861,77.437,140.434,80.162,140.434,80.162z"/>
<path fill="#445760" d="M137.423,78.634c0,0,7.37-2.065,11.951-8.706s2.669-14.254,2.669-14.254s1.15,7.105-3.453,13.702
	C143.986,75.974,137.423,78.634,137.423,78.634z"/>
<path fill="#445760" d="M134.318,77.105c0,0,8.341-1.878,13.218-9.458c4.876-7.58,1.883-15.865,1.883-15.865
	s2.028,7.955-2.683,15.343C142.022,74.512,134.318,77.105,134.318,77.105z"/>
<path fill="#445760" d="M131.164,75.576c0,0,9.31-1.689,14.482-10.209c5.173-8.521,1.096-17.476,1.096-17.476
	s2.906,8.806-1.915,16.982C140.004,73.05,131.164,75.576,131.164,75.576z"/>
<path fill="#445760" d="M127.977,74.048c0,0,10.28-1.502,15.75-10.961S144.037,44,144.037,44s3.782,9.655-1.147,18.621
	C137.96,71.586,127.977,74.048,127.977,74.048z"/>
<path fill="#445760" d="M104.476,65.039c0,0,1.382,4.659,7.465,7.282c5.839,2.918,15.106,1.952,21.804-2.572
	c6.958-4.375,10.646-13.066,10.101-19.435c-0.369-6.422-2.648-10.258-2.648-10.258s1.937,4.03,1.929,10.266
	c0.136,6.217-3.657,14.114-10.179,18.23c-6.333,4.257-14.976,5.566-20.729,3.104C106.234,69.497,104.476,65.039,104.476,65.039z"/>
<path fill="#445760" d="M70.284,7.675c0,0-5.303,1.511-9.708,5.927c-4.407,4.415-5.646,9.863-5.646,9.863s1.725-4.573,6.331-9.192
	C65.867,9.653,70.284,7.675,70.284,7.675z"/>
<path fill="#445760" d="M72.729,9.058c0,0-5.061,1.432-9.215,5.597c-4.152,4.164-5.329,9.36-5.329,9.36s1.688-4.352,6.016-8.689
	S72.729,9.058,72.729,9.058z"/>
<path fill="#445760" d="M75.175,10.441c0,0-4.82,1.353-8.72,5.266s-5.015,8.857-5.015,8.857s1.652-4.13,5.7-8.187
	S75.175,10.441,75.175,10.441z"/>
<path fill="#445760" d="M77.621,11.824c0,0-4.58,1.272-8.226,4.936c-3.646,3.662-4.698,8.354-4.698,8.354s1.614-3.908,5.384-7.684
	S77.621,11.824,77.621,11.824z"/>
<path fill="#445760" d="M80.07,13.208c0,0-4.342,1.193-7.733,4.604s-4.383,7.853-4.383,7.853s1.577-3.688,5.066-7.181
	C76.513,14.989,80.07,13.208,80.07,13.208z"/>
<path fill="#445760" d="M82.515,14.59c0,0-4.102,1.115-7.239,4.275c-3.137,3.16-4.065,7.351-4.065,7.351s1.537-3.467,4.752-6.68
	C79.174,16.324,82.515,14.59,82.515,14.59z"/>
<path fill="#445760" d="M84.96,15.974c0,0-3.861,1.035-6.744,3.944c-2.884,2.909-3.75,6.848-3.75,6.848s1.502-3.245,4.437-6.177
	C81.835,17.657,84.96,15.974,84.96,15.974z"/>
<path fill="#445760" d="M87.406,17.357c0,0-3.619,0.956-6.25,3.613c-2.629,2.659-3.435,6.346-3.435,6.346s1.464-3.024,4.12-5.675
	C84.499,18.991,87.406,17.357,87.406,17.357z"/>
<path fill="#445760" d="M89.853,18.74c0,0-3.381,0.877-5.756,3.283c-2.376,2.407-3.118,5.843-3.118,5.843s1.426-2.802,3.802-5.172
	C87.159,20.325,89.853,18.74,89.853,18.74z"/>
<path fill="#445760" d="M115.696,56.307c0,0-0.969-4.803-4.208-8.358c-3.239-3.557-7.636-5.468-7.636-5.468s3.915,3.03,6.926,6.113
	C113.79,51.677,115.696,56.307,115.696,56.307z"/>
<path fill="#445760" d="M118.124,56.312c0,0-0.577-5.046-3.791-9.045c-3.216-3.999-7.876-6.07-7.876-6.07s4.158,3.161,7.147,6.686
	C116.593,51.407,118.124,56.312,118.124,56.312z"/>
<path fill="#445760" d="M120.553,56.315c0,0-0.187-5.287-3.377-9.729c-3.19-4.44-8.115-6.672-8.115-6.672s4.401,3.292,7.368,7.258
	S120.553,56.315,120.553,56.315z"/>
<path fill="#445760" d="M122.982,56.32c0,0,0.201-5.531-2.963-10.415c-3.165-4.883-8.354-7.274-8.354-7.274s4.642,3.422,7.589,7.829
	C122.2,50.867,122.982,56.32,122.982,56.32z"/>
<path fill="#445760" d="M125.39,56.325c0,0,0.592-5.774-2.548-11.101c-3.142-5.325-8.594-7.877-8.594-7.877s4.886,3.553,7.81,8.401
	S125.39,56.325,125.39,56.325z"/>
<path fill="#445760" d="M127.769,56.329c0,0,0.981-6.017-2.134-11.785c-3.116-5.768-8.832-8.479-8.832-8.479
	s5.127,3.684,8.028,8.974C127.734,50.327,127.769,56.329,127.769,56.329z"/>
<path fill="#445760" d="M130.119,56.335c0,0,1.373-6.262-1.719-12.472c-3.091-6.21-9.071-9.081-9.071-9.081s5.371,3.813,8.251,9.544
	C130.458,50.057,130.119,56.335,130.119,56.335z"/>
<path fill="#445760" d="M132.449,56.339c0,0,1.762-6.504-1.305-13.157c-3.065-6.652-9.31-9.684-9.31-9.684s5.612,3.945,8.469,10.117
	C133.162,49.788,132.449,56.339,132.449,56.339z"/>
<path fill="#445760" d="M134.761,56.343c0,0,2.151-6.747-0.89-13.842c-3.043-7.094-9.551-10.286-9.551-10.286
	s5.854,4.076,8.691,10.689C135.848,49.518,134.761,56.343,134.761,56.343z"/>
<path fill="#445760" d="M137.058,56.348c0,0,2.542-6.989-0.475-14.527c-3.017-7.537-9.787-10.889-9.787-10.889
	s6.098,4.207,8.91,11.262C138.52,49.248,137.058,56.348,137.058,56.348z"/>
<path fill="#445760" d="M139.347,56.353c0,0,2.931-7.233-0.062-15.213s-10.026-11.491-10.026-11.491s6.34,4.338,9.131,11.833
	C141.182,48.978,139.347,56.353,139.347,56.353z"/>
<path fill="#445760" d="M74.894,50.652c0,0-4.314,2.909-5.402,8.528c-1.087,5.619,1.38,10.093,1.38,10.093s-1.49-4.525-0.438-9.906
	C71.486,53.986,74.894,50.652,74.894,50.652z"/>
<path fill="#445760" d="M72.354,49.347c0,0-4.547,3.056-5.729,8.925c-1.182,5.871,1.404,10.6,1.404,10.6s-1.61-4.761-0.465-10.407
	C68.709,52.816,72.354,49.347,72.354,49.347z"/>
<path fill="#445760" d="M69.811,48.039c0,0-4.775,3.202-6.054,9.323c-1.278,6.122,1.43,11.108,1.43,11.108s-1.73-5-0.491-10.912
	C65.933,51.646,69.811,48.039,69.811,48.039z"/>
<path fill="#445760" d="M67.27,46.732c0,0-5.006,3.349-6.38,9.722c-1.374,6.372,1.457,11.614,1.457,11.614
	s-1.854-5.236-0.521-11.414C63.161,50.478,67.27,46.732,67.27,46.732z"/>
<path fill="#445760" d="M64.729,45.426c0,0-5.236,3.495-6.708,10.119c-1.469,6.622,1.483,12.12,1.483,12.12
	s-1.973-5.472-0.546-11.915C60.385,49.308,64.729,45.426,64.729,45.426z"/>
<path fill="#445760" d="M62.188,44.119c0,0-5.469,3.642-7.034,10.517c-1.564,6.874,1.51,12.628,1.51,12.628
	s-2.094-5.71-0.573-12.418C57.612,48.137,62.188,44.119,62.188,44.119z"/>
<path fill="#445760" d="M59.647,42.812c0,0-5.699,3.789-7.36,10.914c-1.661,7.126,1.535,13.135,1.535,13.135
	s-2.215-5.946-0.601-12.921C54.836,46.967,59.647,42.812,59.647,42.812z"/>
<path fill="#445760" d="M57.106,41.506c0,0-5.93,3.934-7.687,11.312c-1.757,7.376,1.561,13.642,1.561,13.642
	s-2.336-6.183-0.627-13.422C52.061,45.797,57.106,41.506,57.106,41.506z"/>
<path fill="#445760" d="M54.564,40.199c0,0-6.16,4.081-8.012,11.709c-1.854,7.627,1.586,14.148,1.586,14.148
	s-2.456-6.419-0.654-13.925C49.288,44.627,54.564,40.199,54.564,40.199z"/>
<path fill="#445760" d="M52.022,38.894c0,0-6.389,4.227-8.338,12.105c-1.947,7.878,1.612,14.656,1.612,14.656
	s-2.576-6.656-0.679-14.426C46.512,43.457,52.022,38.894,52.022,38.894z"/>
<path fill="#445760" d="M49.482,37.586c0,0-6.621,4.374-8.665,12.504s1.638,15.163,1.638,15.163s-2.697-6.893-0.706-14.93
	C43.739,42.288,49.482,37.586,49.482,37.586z"/>
<path fill="#445760" d="M100.555,41.23c0,0-2.293-2.483-3.123-6.075c-0.83-3.593,0.551-6.775,0.551-6.775s-2.314,3.131-1.489,6.98
	C97.32,39.208,100.555,41.23,100.555,41.23z"/>
<path fill="#445760" d="M97.887,41.886c0,0-2.736-2.474-3.532-6.321s0.782-7.232,0.782-7.232s-2.509,3.297-1.72,7.428
	S97.887,41.886,97.887,41.886z"/>
<path fill="#445760" d="M95.219,42.542c0,0-3.179-2.465-3.941-6.568s1.015-7.69,1.015-7.69s-2.705,3.465-1.955,7.877
	C91.089,40.573,95.219,42.542,95.219,42.542z"/>
<path fill="#445760" d="M92.552,43.197c0,0-3.619-2.456-4.349-6.813c-0.73-4.359,1.245-8.149,1.245-8.149s-2.904,3.631-2.189,8.326
	C87.977,41.256,92.552,43.197,92.552,43.197z"/>
<path fill="#445760" d="M89.884,43.853c0,0-4.062-2.445-4.758-7.06s1.477-8.607,1.477-8.607s-3.099,3.799-2.42,8.775
	C84.862,41.938,89.884,43.853,89.884,43.853z"/>
<path fill="#445760" d="M87.216,44.507c0,0-4.503-2.435-5.166-7.305c-0.664-4.869,1.71-9.065,1.71-9.065s-3.297,3.967-2.655,9.225
	C81.747,42.62,87.216,44.507,87.216,44.507z"/>
<path fill="#445760" d="M84.548,45.164c0,0-4.944-2.427-5.574-7.553c-0.63-5.124,1.94-9.523,1.94-9.523s-3.492,4.134-2.888,9.675
	C78.632,43.303,84.548,45.164,84.548,45.164z"/>
<path fill="#445760" d="M81.88,45.819c0,0-5.386-2.417-5.982-7.799c-0.597-5.38,2.172-9.982,2.172-9.982s-3.688,4.303-3.12,10.124
	C75.518,43.985,81.88,45.819,81.88,45.819z"/>
<path fill="#445760" d="M79.213,46.475c0,0-5.829-2.408-6.392-8.044c-0.562-5.637,2.403-10.44,2.403-10.44
	s-3.885,4.469-3.353,10.573C72.403,44.668,79.213,46.475,79.213,46.475z"/>
<path fill="#445760" d="M76.545,47.131c0,0-6.271-2.398-6.8-8.291C69.216,32.948,72.38,27.94,72.38,27.94s-4.08,4.638-3.585,11.023
	C69.29,45.351,76.545,47.131,76.545,47.131z"/>
<path fill="#445760" d="M73.876,47.786c0,0-6.711-2.39-7.207-8.537c-0.495-6.146,2.866-11.356,2.866-11.356
	s-4.275,4.804-3.819,11.472C66.174,46.032,73.876,47.786,73.876,47.786z"/>
<path fill="#445760" d="M107.239,20.975c0,0-1.194-5.748-5.299-9.278c-4.106-3.531-9.384-5.22-9.384-5.22s4.658,2.371,8.738,5.93
	C105.376,15.965,107.239,20.975,107.239,20.975z"/>
<path fill="#445760" d="M105.726,22.301c0,0-1.021-4.884-4.584-7.944c-3.565-3.062-8.128-4.309-8.128-4.309s3.911,1.927,7.489,5.024
	C104.081,18.171,105.726,22.301,105.726,22.301z"/>
<path fill="#445760" d="M104.212,23.629c0,0-0.846-4.021-3.869-6.612c-3.023-2.591-6.873-3.397-6.873-3.397s3.167,1.48,6.241,4.119
	C102.784,20.377,104.212,23.629,104.212,23.629z"/>
<path fill="#445760" d="M102.7,24.957c0,0-0.672-3.159-3.155-5.28c-2.48-2.121-5.617-2.486-5.617-2.486s2.424,1.033,4.991,3.213
	C101.489,22.584,102.7,24.957,102.7,24.957z"/>
<path fill="#445760" d="M101.186,26.283c0,0-0.496-2.295-2.438-3.946c-1.941-1.652-4.363-1.575-4.363-1.575s1.679,0.588,3.744,2.309
	C100.194,24.79,101.186,26.283,101.186,26.283z"/>
<path fill="#445760" d="M18.735,45.323c3.337-5.485,11.964-11.063,23.008-11.025c1.365,0.062,2.696,0.1,4.168,0.306
	c1.47,0.205,3.203,0.612,3.203,0.612c-0.204-2.764-0.277-5.649,0.312-8.532c0.928-6.161,4.2-12.289,9.279-16.741
	c9.857-8.863,25.569-13.077,38.519-7.27c6.353,2.77,11.753,8.232,13.942,14.951c1.04,3.058,1.458,6.29,1.335,9.465
	c0.642-0.426,1.308-0.814,2.011-1.125c1.596-0.738,3.324-1.187,5.065-1.285c3.512-0.226,6.911,1.08,9.545,3.044l0.245,0.179
	c0,0,1.616-1.032,3.105-1.685c1.488-0.65,2.988-1.144,4.527-1.468c6.17-1.287,12.439,0.17,16.922,3.379
	c9.25,6.711,10.077,17.945,7.371,23.635c-2.476,6.052-5.885,8.119-5.885,8.119s3.339-2.191,5.603-8.226
	c2.516-5.691,1.335-16.548-7.633-22.737c-4.335-2.963-10.319-4.209-16.098-2.889c-1.44,0.331-2.504,0.74-4.229,1.456
	c-1.726,0.717-3.763,2.169-3.763,2.169c-0.396-0.279-1.023-0.734-1.023-0.734c-2.469-1.775-5.508-2.867-8.587-2.627
	c-1.531,0.108-2.705,0.403-4.45,1.194c-1.746,0.791-3.648,2.549-4.748,3.67c0,0,0.08-0.558,0.246-3.347
	c0.166-2.79-0.226-6.52-1.295-9.591c-2.086-6.205-7.05-11.193-12.987-13.795c-12.088-5.443-27.067-1.66-36.68,6.739
	c-4.845,4.137-8.049,9.864-9.048,15.752c-0.659,2.92-0.595,5.872-0.431,8.693l0.095,1.141c-1.028-0.389-3.944-1.006-4.625-1.109
	c-1.349-0.266-2.701-0.294-4.023-0.385c-10.72-0.279-19.319,4.933-22.748,10.233c-3.418,5.053-2.73,9.44-2.73,9.44
	S15.409,50.563,18.735,45.323z"/>
</svg>
